<svg xmlns="http://www.w3.org/2000/svg" width="110.328" height="21.962" viewBox="0 0 110.328 21.962"><defs><style>.a{fill:#44444f;stroke:#44444f;stroke-width:0.5px;}.b{fill:none;}.c,.d{stroke:none;}.d{fill:#44444f;}</style></defs><g transform="translate(-45 -29.288)"><path class="a" d="M-39.506-15.088l-3.708,8.977-3.926-8.977h-2.375l5.235,11.6-1.915,4.639h2.133l6.955-16.237Zm9.985,11.9a6.021,6.021,0,0,0,6.374-6.1,6.021,6.021,0,0,0-6.374-6.1,6.021,6.021,0,0,0-6.374,6.1A6.021,6.021,0,0,0-29.521-3.189Zm0-1.948a3.932,3.932,0,0,1-4.144-4.152,3.932,3.932,0,0,1,4.144-4.152,3.932,3.932,0,0,1,4.144,4.152A3.932,3.932,0,0,1-29.521-5.137ZM-13.889-15.39a4.824,4.824,0,0,0-4.12,2.041l-.17-1.74H-20v11.6h2.133v-6.75c0-2.111,1.939-3.2,3.684-3.2a2.92,2.92,0,0,1,3.1,2.992v6.959h2.133v-7.191A4.67,4.67,0,0,0-13.889-15.39Zm19.824.3H1.645a6.917,6.917,0,0,0-2.036-.3c-3.078,0-5.089,1.74-5.089,4.291A3.942,3.942,0,0,0-4.1-8.014,2.13,2.13,0,0,0-5.746-5.88,2.5,2.5,0,0,0-4.656-3.815,2.675,2.675,0,0,0-6.4-1.287c0,2.18,2.157,3.9,6.277,3.9C4.02,2.61,5.935,1.1,5.935-1.38,5.935-3.885,4-5.021-.148-5.021H-2.257c-.824,0-1.333-.232-1.333-.9,0-.7.485-1.067,1.333-1.067h.315A6.613,6.613,0,0,0-.39-6.831c3.005,0,5.065-1.693,5.065-4.268A3.976,3.976,0,0,0,3.9-13.534L5.935-13.7ZM-.39-8.733C-2.305-8.733-3.3-9.591-3.3-11.1c0-1.485.994-2.389,2.908-2.389,1.866,0,2.884.9,2.884,2.389C2.493-9.591,1.476-8.733-.39-8.733ZM3.729-1.38C3.729-.058,2.712.685-.1.685c-3.054,0-4.071-.951-4.071-2.041,0-.765.436-1.345,1.454-1.763a3.063,3.063,0,0,0,.46.023H-.148C2.784-3.1,3.729-2.655,3.729-1.38Zm6.01-7.1h9.573a8.893,8.893,0,0,0,.17-1.6c0-2.691-1.915-5.312-5.719-5.312-3.708,0-6.253,2.482-6.253,6.031a6.03,6.03,0,0,0,6.4,6.17,7.031,7.031,0,0,0,4.823-1.786L17.447-6.483a5.1,5.1,0,0,1-3.563,1.392A3.939,3.939,0,0,1,9.74-8.478Zm3.975-5.01a3.166,3.166,0,0,1,3.514,3.155H9.764A3.753,3.753,0,0,1,13.714-13.488Zm15.05-1.9a4.78,4.78,0,0,0-4.144,2.2l-.17-1.9H22.633v11.6h2.133V-9.985a3.481,3.481,0,0,1,3.659-3.456,4.222,4.222,0,0,1,1.333.232l.727-1.925A5.918,5.918,0,0,0,28.764-15.39Z" transform="translate(124.515 48.39)"/><g class="b" transform="translate(70 50.715) rotate(180)"><path class="c" d="M8.221,2.308a5.12,5.12,0,0,1,8.558,0l7.414,11.427a5,5,0,0,1-4.279,7.692H5.086A5,5,0,0,1,.807,13.735Z"/><path class="d" d="M 12.50000190734863 2.999996185302734 C 12.15371227264404 2.999996185302734 11.28880214691162 3.091676712036133 10.73781204223633 3.940906524658203 L 3.323692321777344 15.36822700500488 C 2.755062103271484 16.24465751647949 3.078672409057617 17.04799652099609 3.24420166015625 17.35270690917969 C 3.419721603393555 17.67580795288086 3.950542449951172 18.42732620239258 5.085882186889648 18.42732620239258 L 19.91412162780762 18.42732620239258 C 21.04946136474609 18.42732620239258 21.58028221130371 17.67580795288086 21.75580215454102 17.35270690917969 C 21.92133140563965 17.04799652099609 22.24494171142578 16.24465751647949 21.67631149291992 15.36822700500488 L 14.26218223571777 3.940906524658203 C 13.71120166778564 3.091676712036133 12.84629154205322 2.999996185302734 12.50000190734863 2.999996185302734 M 12.5000057220459 0 C 14.14028930664063 0 15.78057193756104 0.7693519592285156 16.77889251708984 2.30805778503418 L 24.19301223754883 13.73537731170654 C 26.35238265991211 17.06360626220703 23.9249210357666 21.42732620239258 19.91412162780762 21.42732620239258 L 5.085882186889648 21.42732620239258 C 1.075082778930664 21.42732620239258 -1.352378845214844 17.06360626220703 0.8069915771484375 13.73537731170654 L 8.221111297607422 2.30805778503418 C 9.219436645507813 0.7693519592285156 10.85972213745117 0 12.5000057220459 0 Z"/></g></g></svg>