<svg width="0" height="0" class="hidden">
  <symbol fill="none" xmlns="http://www.w3.org/2000/svg" viewBox="0 0 24 24" id="users">
    <path d="M3 18a4 4 0 014-4h4a4 4 0 014 4m1-13.35a2.5 2.5 0 110 5m-4.595-4.654a3.401 3.401 0 11-4.81 4.81 3.401 3.401 0 014.81-4.81M17 13a4 4 0 014 4" stroke="#323232" stroke-width="1.5" stroke-linecap="round" stroke-linejoin="round"></path>
  </symbol>
  <symbol fill="none" xmlns="http://www.w3.org/2000/svg" viewBox="0 0 24 24" id="square">
    <path d="M18.939 19.275a5.193 5.193 0 00-4.826-3.273H9.887a5.19 5.19 0 00-3.552 1.405v0a5.194 5.194 0 00-1.273 1.868l-.228.57" stroke="#323232" stroke-width="1.5" stroke-linecap="round" stroke-linejoin="round"></path>
    <rect x="8.999" y="6.748" width="6.003" height="6.503" rx="3" stroke="#323232" stroke-width="1.5" stroke-linecap="round" stroke-linejoin="round"></rect>
    <rect x="2.996" y="2.996" width="18.008" height="18.008" rx="5" stroke="#323232" stroke-width="1.5" stroke-linecap="round" stroke-linejoin="round"></rect>
  </symbol>
  <symbol fill="none" xmlns="http://www.w3.org/2000/svg" viewBox="0 0 24 24" id="settings">
    <path d="M13.91 10.09a2.7 2.7 0 11-3.82 3.819 2.7 2.7 0 013.82-3.818" stroke="#323232" stroke-width="1.5" stroke-linecap="round" stroke-linejoin="round"></path>
    <path clip-rule="evenodd" d="M5.25 12c0 .297.027.594.063.882l-1.588 1.242a.898.898 0 00-.224 1.156l1.412 2.443a.898.898 0 001.112.384l1.422-.571a.912.912 0 01.846.099c.22.146.448.28.684.4.27.137.466.382.509.682l.217 1.513c.063.442.442.77.888.77h2.817a.897.897 0 00.888-.77l.217-1.512a.918.918 0 01.512-.683c.235-.118.462-.251.681-.396a.915.915 0 01.85-.102l1.419.57a.899.899 0 001.112-.384l1.412-2.443a.898.898 0 00-.224-1.156l-1.588-1.242c.036-.288.063-.585.063-.882 0-.297-.027-.594-.063-.882l1.588-1.242a.898.898 0 00.224-1.156l-1.412-2.443a.898.898 0 00-1.112-.384l-1.419.57a.918.918 0 01-.85-.102 6.597 6.597 0 00-.681-.396.918.918 0 01-.512-.683l-.216-1.512a.897.897 0 00-.888-.77h-2.817a.897.897 0 00-.888.77l-.218 1.514a.92.92 0 01-.509.682c-.236.12-.464.255-.684.4a.917.917 0 01-.847.098l-1.421-.571a.898.898 0 00-1.112.384L3.501 8.72a.898.898 0 00.224 1.156l1.588 1.242A7.138 7.138 0 005.25 12v0z" stroke="#323232" stroke-width="1.5" stroke-linecap="round" stroke-linejoin="round"></path>
  </symbol>
  <symbol fill="none" xmlns="http://www.w3.org/2000/svg" viewBox="0 0 24 24" id="select">
    <rect x="6.998" y="6.998" width="14.006" height="14.006" rx="2" stroke="#323232" stroke-width="1.5" stroke-linecap="round" stroke-linejoin="round"></rect>
    <path d="M6.998 17.002h-2a2 2 0 01-2.002-2V4.997a2 2 0 012.001-2h10.004a2 2 0 012.001 2v2.001" stroke="#323232" stroke-width="1.5" stroke-linecap="round" stroke-linejoin="round"></path>
  </symbol>
  <symbol fill="none" xmlns="http://www.w3.org/2000/svg" viewBox="0 0 24 24" id="search">
    <path d="M15.714 6.838a6.276 6.276 0 11-8.876 8.876 6.276 6.276 0 018.876-8.876M19 19l-3.29-3.29" stroke="#323232" stroke-width="1.5" stroke-linecap="round" stroke-linejoin="round"></path>
  </symbol>
  <symbol fill="none" xmlns="http://www.w3.org/2000/svg" viewBox="0 0 24 24" id="pen">
    <path d="M18 13v6a2 2 0 01-2 2H5a2 2 0 01-2-2V8a2 2 0 012-2h4" stroke="#323232" stroke-width="1.5" stroke-linecap="round" stroke-linejoin="round"></path>
    <path clip-rule="evenodd" d="M8 15l3.15-.389c.221-.027.427-.128.585-.285l7.631-7.631a2.165 2.165 0 000-3.061v0a2.165 2.165 0 00-3.061 0l-7.56 7.56a1.001 1.001 0 00-.283.566L8 15z" stroke="#323232" stroke-width="1.5" stroke-linecap="round" stroke-linejoin="round"></path>
  </symbol>
  <symbol fill="none" xmlns="http://www.w3.org/2000/svg" viewBox="0 0 22 14" id="menu">
    <path fill-rule="evenodd" clip-rule="evenodd" d="M20.332 2.999H1.665a1.333 1.333 0 010-2.667h18.667a1.333 1.333 0 110 2.667zm0 10.666H1.665a1.333 1.333 0 010-2.666h18.667a1.333 1.333 0 110 2.666z" fill="#92929D"></path>
  </symbol>
  <symbol fill="none" xmlns="http://www.w3.org/2000/svg" viewBox="0 0 24 24" id="grid2">
    <path clip-rule="evenodd" d="M19 21h-3a2 2 0 01-2-2v-5a2 2 0 012-2h3a2 2 0 012 2v5a2 2 0 01-2 2zm0-12h-3a2 2 0 01-2-2V5a2 2 0 012-2h3a2 2 0 012 2v2a2 2 0 01-2 2zM5 3h3a2 2 0 012 2v5a2 2 0 01-2 2H5a2 2 0 01-2-2V5a2 2 0 012-2zm0 12h3a2 2 0 012 2v2a2 2 0 01-2 2H5a2 2 0 01-2-2v-2a2 2 0 012-2z" stroke="#323232" stroke-width="1.5" stroke-linecap="round" stroke-linejoin="round"></path>
  </symbol>
  <symbol fill="none" xmlns="http://www.w3.org/2000/svg" viewBox="0 0 24 24" id="grid">
    <path clip-rule="evenodd" d="M20 7h-9a1 1 0 01-1-1V4a1 1 0 011-1h9a1 1 0 011 1v2a1 1 0 01-1 1zm0 7h-9a1 1 0 01-1-1v-2a1 1 0 011-1h9a1 1 0 011 1v2a1 1 0 01-1 1zm0 7h-9a1 1 0 01-1-1v-2a1 1 0 011-1h9a1 1 0 011 1v2a1 1 0 01-1 1zM6 7H4a1 1 0 01-1-1V4a1 1 0 011-1h2a1 1 0 011 1v2a1 1 0 01-1 1zm0 7H4a1 1 0 01-1-1v-2a1 1 0 011-1h2a1 1 0 011 1v2a1 1 0 01-1 1zm0 7H4a1 1 0 01-1-1v-2a1 1 0 011-1h2a1 1 0 011 1v2a1 1 0 01-1 1z" stroke="#323232" stroke-width="1.5" stroke-linecap="round" stroke-linejoin="round"></path>
  </symbol>
  <symbol fill="none" xmlns="http://www.w3.org/2000/svg" viewBox="0 0 24 24" id="done">
    <path d="M8.712 12.566l2.193 2.193 4.787-4.788" stroke="#323232" stroke-width="1.5" stroke-linecap="round" stroke-linejoin="round"></path>
    <path clip-rule="evenodd" d="M19 21H5a2 2 0 01-2-2V5a2 2 0 012-2h14a2 2 0 012 2v14a2 2 0 01-2 2z" stroke="#323232" stroke-width="1.5" stroke-linecap="round" stroke-linejoin="round"></path>
  </symbol>
  <symbol fill="none" xmlns="http://www.w3.org/2000/svg" viewBox="0 0 24 24" id="cursor">
    <path clip-rule="evenodd" d="M14.005 12L20 16.5l-6 3 .005-7.5z" stroke="#323232" stroke-width="1.444" stroke-linecap="round" stroke-linejoin="round"></path>
    <path d="M17 18l1.5 3" stroke="#323232" stroke-width="1.444" stroke-linecap="round" stroke-linejoin="round"></path>
    <path d="M9 19H5a2 2 0 01-2-2V5a2 2 0 012-2h14a2 2 0 012 2v7" stroke="#323232" stroke-width="1.5" stroke-linecap="round" stroke-linejoin="round"></path>
  </symbol>
  <symbol fill="none" xmlns="http://www.w3.org/2000/svg" viewBox="0 0 24 24" id="chat">
    <path d="M12.088 11.662a.125.125 0 11-.176.177.125.125 0 01.176-.177" stroke="#323232" stroke-width="1.5" stroke-linecap="round" stroke-linejoin="round"></path>
    <path clip-rule="evenodd" d="M12 3.997c-4.972 0-9.004 3.36-9.004 7.5a7.13 7.13 0 003.632 6 6.453 6.453 0 01-.893 1.643.87.87 0 00.96 1.327 10.723 10.723 0 003.344-1.65c.647.122 1.303.182 1.961.18 4.972 0 9.004-3.36 9.004-7.5 0-4.14-4.032-7.5-9.004-7.5z" stroke="#323232" stroke-width="1.5" stroke-linecap="round" stroke-linejoin="round"></path>
    <path d="M16.09 11.662a.125.125 0 11-.177.177.125.125 0 01.177-.177m-8.003 0a.125.125 0 11-.177.177.125.125 0 01.177-.177" stroke="#323232" stroke-width="1.5" stroke-linecap="round" stroke-linejoin="round"></path>
  </symbol>
  <symbol fill="none" xmlns="http://www.w3.org/2000/svg" viewBox="0 0 24 24" id="bell">
    <path d="M13.6 20h-3.2" stroke="#323232" stroke-width="1.5" stroke-linecap="round" stroke-linejoin="round"></path>
    <path clip-rule="evenodd" d="M17 10.032V10v0a5 5 0 00-5-5v0a5 5 0 00-5 5v2.504a.855.855 0 01-.472.764l-.503.251A1.857 1.857 0 005 15.178v0c0 1.024.83 1.854 1.854 1.854h10.292c1.024 0 1.854-.83 1.854-1.854v0c0-.702-.397-1.344-1.025-1.658l-.503-.251a.857.857 0 01-.472-.765v-2.472z" stroke="#323232" stroke-width="1.5" stroke-linecap="round" stroke-linejoin="round"></path>
  </symbol>
  <symbol fill="none" xmlns="http://www.w3.org/2000/svg" viewBox="0 0 24 24" id="add">
    <path clip-rule="evenodd" d="M8 10H5a2 2 0 01-2-2V5a2 2 0 012-2h3a2 2 0 012 2v3a2 2 0 01-2 2zm11 0h-3a2 2 0 01-2-2V5a2 2 0 012-2h3a2 2 0 012 2v3a2 2 0 01-2 2zM8 21H5a2 2 0 01-2-2v-3a2 2 0 012-2h3a2 2 0 012 2v3a2 2 0 01-2 2z" stroke="#323232" stroke-width="1.5" stroke-linecap="round" stroke-linejoin="round"></path>
    <path d="M17.5 15v5m2.5-2.5h-5" stroke="#323232" stroke-width="1.5" stroke-linecap="round" stroke-linejoin="round"></path>
  </symbol>
</svg>